<svg width="219" height="217" viewBox="0 0 219 217" fill="none" xmlns="http://www.w3.org/2000/svg">
<g filter="url(#filter0_ii_113_13527)">
<path d="M35 128V43.6667C35 43.6667 75.5263 13 105 13C134.474 13 175 43.6667 175 43.6667V128C175 134.708 167.632 151 145.526 170.167C123.421 189.333 105 197 105 197C105 197 86.5789 189.333 64.4737 170.167C42.3684 151 35 135.667 35 128Z" fill="url(#paint0_radial_113_13527)"/>
</g>
<g style="mix-blend-mode:overlay" opacity="0.35">
<path d="M167.598 145H176.397V137H167.598V145Z" fill="white"/>
<path d="M149.798 145H158.598V137H149.798V145Z" fill="white"/>
<path d="M131.998 145H140.798V137H131.998V145Z" fill="white"/>
<path d="M114.198 145H122.998V137H114.198V145Z" fill="white"/>
<path d="M96.3985 145H105.198V137H96.3985V145Z" fill="white"/>
<path d="M78.5987 145H87.3984V137H78.5987V145Z" fill="white"/>
<path d="M60.7989 145H69.5986V137H60.7989V145Z" fill="white"/>
<path d="M42.9991 145H51.7988V137H42.9991V145Z" fill="white"/>
<path d="M158.698 153H167.498V145H158.698V153Z" fill="white"/>
<path d="M140.899 153H149.698V145H140.899V153Z" fill="white"/>
<path d="M123.099 153H131.898V145H123.099V153Z" fill="white"/>
<path d="M105.299 153H114.099V145H105.299V153Z" fill="white"/>
<path d="M87.4991 153H96.2988V145H87.4991V153Z" fill="white"/>
<path d="M69.6993 153H78.499V145H69.6993V153Z" fill="white"/>
<path d="M51.8995 153H60.6992V145H51.8995V153Z" fill="white"/>
<path d="M149.799 161H158.599V153H149.799V161Z" fill="white"/>
<path d="M131.999 161H140.799V153H131.999V161Z" fill="white"/>
<path d="M114.199 161H122.999V153H114.199V161Z" fill="white"/>
<path d="M96.3995 161H105.199V153H96.3995V161Z" fill="white"/>
<path d="M78.5997 161H87.3994V153H78.5997V161Z" fill="white"/>
<path d="M60.7999 161H69.5996V153H60.7999V161Z" fill="white"/>
<path d="M140.898 169H149.698V161H140.898V169Z" fill="white"/>
<path d="M123.099 169H131.898V161H123.099V169Z" fill="white"/>
<path d="M105.299 169H114.099V161H105.299V169Z" fill="white"/>
<path d="M87.4991 169H96.2988V161H87.4991V169Z" fill="white"/>
<path d="M69.6993 169H78.499V161H69.6993V169Z" fill="white"/>
<path d="M131.999 177H140.799V169H131.999V177Z" fill="white"/>
<path d="M114.199 177H122.999V169H114.199V177Z" fill="white"/>
<path d="M96.3995 177H105.199V169H96.3995V177Z" fill="white"/>
<path d="M78.5997 177H87.3994V169H78.5997V177Z" fill="white"/>
<path d="M123.099 185H131.898V177H123.099V185Z" fill="white"/>
<path d="M105.299 185H114.099V177H105.299V185Z" fill="white"/>
<path d="M87.4991 185H96.2988V177H87.4991V185Z" fill="white"/>
<path d="M114.199 193H122.999V185H114.199V193Z" fill="white"/>
<path d="M96.3995 193H105.199V185H96.3995V193Z" fill="white"/>
<path d="M105.299 201H114.099V193H105.299V201Z" fill="white"/>
</g>
<g clip-path="url(#clip0_113_13527)">
<g clip-path="url(#clip1_113_13527)">
<path d="M99.5142 26.7867C99.5057 27.0535 99.54 27.32 99.6156 27.576C99.6935 27.7953 99.7898 28.0076 99.9036 28.2107C99.9423 28.2714 99.9644 28.3413 99.9676 28.4133C99.9619 28.4673 99.9435 28.5192 99.9138 28.5646C99.8842 28.6101 99.8441 28.6478 99.7969 28.6747L99.2636 29.048C99.1945 29.0965 99.1131 29.1242 99.0289 29.128C98.9793 29.1262 98.9306 29.1144 98.8857 29.0934C98.8408 29.0723 98.8006 29.0423 98.7676 29.0053C98.6437 28.8828 98.5361 28.7447 98.4476 28.5947C98.3587 28.4453 98.268 28.2675 98.1756 28.0613C97.8632 28.4512 97.4658 28.7644 97.0138 28.977C96.5617 29.1896 96.067 29.296 95.5676 29.288C95.245 29.3057 94.9222 29.2586 94.6181 29.1496C94.314 29.0406 94.0348 28.8719 93.7969 28.6533C93.5765 28.4292 93.4049 28.1618 93.293 27.8681C93.181 27.5744 93.131 27.2606 93.1462 26.9467C93.1321 26.6054 93.1947 26.2653 93.3295 25.9515C93.4642 25.6377 93.6677 25.3581 93.9249 25.1333C94.5424 24.647 95.316 24.4024 96.1009 24.4453C96.415 24.4462 96.7287 24.4694 97.0396 24.5147C97.3667 24.5609 97.7062 24.6249 98.0582 24.7067V24.056C98.11 23.5461 97.9586 23.0363 97.6369 22.6373C97.2253 22.3208 96.7081 22.1739 96.1916 22.2267C95.8698 22.2283 95.5494 22.2677 95.2369 22.344C94.9116 22.4218 94.5926 22.5234 94.2822 22.648C94.1819 22.6941 94.0785 22.7333 93.9729 22.7653H93.8342C93.7098 22.7653 93.6476 22.6729 93.6476 22.488V22.0667C93.6399 21.9596 93.6621 21.8526 93.7116 21.7573C93.7784 21.6753 93.8645 21.6112 93.9622 21.5707C94.3192 21.3997 94.6927 21.2656 95.0769 21.1707C95.5281 21.0548 95.9924 20.9974 96.4582 21C97.2961 20.9257 98.1296 21.1844 98.7782 21.72C99.0419 22.015 99.2431 22.3604 99.3696 22.7353C99.4961 23.1102 99.5453 23.5069 99.5142 23.9013V26.7867ZM95.9142 28.136C96.227 28.1314 96.5369 28.0756 96.8316 27.9707C97.1564 27.8581 97.4454 27.6612 97.6689 27.4C97.8066 27.2464 97.9086 27.0643 97.9676 26.8667C98.029 26.6154 98.0576 26.3573 98.0529 26.0987V25.7253C97.7838 25.6608 97.5114 25.611 97.2369 25.576C96.961 25.5407 96.6831 25.5229 96.4049 25.5227C95.9378 25.4876 95.4729 25.6138 95.0876 25.88C94.9484 26.0028 94.8383 26.1551 94.7655 26.3257C94.6926 26.4964 94.6587 26.6812 94.6662 26.8667C94.6536 27.037 94.676 27.2082 94.7319 27.3696C94.7879 27.531 94.8762 27.6793 94.9916 27.8053C95.1161 27.9184 95.2617 28.0057 95.42 28.0625C95.5783 28.1192 95.7462 28.1442 95.9142 28.136ZM103.034 29.096C102.914 29.107 102.794 29.0769 102.693 29.0107C102.598 28.9156 102.534 28.7952 102.506 28.664L100.432 21.8053C100.391 21.6897 100.364 21.5698 100.352 21.448C100.347 21.4182 100.35 21.3878 100.359 21.3592C100.368 21.3306 100.384 21.3047 100.406 21.2834C100.427 21.2621 100.453 21.2461 100.481 21.2367C100.51 21.2273 100.54 21.2248 100.57 21.2293H101.44C101.561 21.2171 101.684 21.2472 101.786 21.3147C101.874 21.4126 101.935 21.5323 101.962 21.6613L103.45 27.528L104.832 21.6613C104.853 21.5319 104.914 21.4124 105.008 21.32C105.114 21.254 105.24 21.2241 105.365 21.2347H106.08C106.205 21.2241 106.33 21.254 106.437 21.32C106.529 21.4146 106.589 21.536 106.608 21.6667L108 27.608L109.536 21.6667C109.564 21.5369 109.626 21.4172 109.717 21.32C109.819 21.2526 109.942 21.2224 110.064 21.2347H110.885C110.915 21.2301 110.945 21.2327 110.974 21.2421C111.002 21.2515 111.028 21.2674 111.049 21.2887C111.071 21.31 111.087 21.336 111.096 21.3646C111.106 21.3932 111.108 21.4236 111.104 21.4533C111.108 21.4994 111.108 21.5459 111.104 21.592C111.087 21.6661 111.065 21.7391 111.04 21.8107L108.906 28.6693C108.879 28.8005 108.814 28.9209 108.72 29.016C108.619 29.0822 108.498 29.1123 108.378 29.1013H107.6C107.473 29.1145 107.347 29.0824 107.242 29.0107C107.151 28.9114 107.091 28.7869 107.072 28.6533L105.69 22.9413L104.325 28.648C104.305 28.7815 104.246 28.9061 104.154 29.0053C104.05 29.0771 103.923 29.1092 103.797 29.096H103.034ZM114.426 29.3307C113.967 29.3314 113.509 29.2795 113.061 29.176C112.705 29.1043 112.36 28.9841 112.037 28.8187C111.94 28.7775 111.857 28.7084 111.799 28.6201C111.741 28.5318 111.711 28.4283 111.712 28.3227V27.8747C111.712 27.6898 111.779 27.5973 111.914 27.5973C111.971 27.5982 112.027 27.609 112.08 27.6293L112.304 27.72C112.617 27.8585 112.944 27.9622 113.28 28.0293C113.631 28.1014 113.988 28.1372 114.346 28.136C114.797 28.1627 115.247 28.061 115.642 27.8427C115.787 27.7569 115.905 27.6339 115.986 27.4867C116.067 27.3394 116.106 27.1732 116.101 27.0053C116.104 26.8914 116.084 26.7781 116.043 26.6719C116.002 26.5657 115.94 26.4687 115.861 26.3867C115.592 26.1611 115.274 26.0005 114.933 25.9173L113.648 25.512C113.106 25.3616 112.624 25.0489 112.266 24.616C111.98 24.2484 111.825 23.7963 111.824 23.3307C111.816 22.9865 111.899 22.6463 112.064 22.344C112.223 22.0596 112.439 21.8109 112.698 21.6133C112.97 21.4066 113.277 21.2512 113.605 21.1547C113.967 21.0501 114.343 20.998 114.72 21C114.919 20.9998 115.119 21.0123 115.317 21.0373C115.52 21.0622 115.712 21.096 115.893 21.1387C116.074 21.1813 116.243 21.2275 116.4 21.2773C116.528 21.3177 116.653 21.3695 116.773 21.432C116.874 21.4864 116.963 21.5608 117.034 21.6507C117.091 21.7378 117.119 21.8403 117.114 21.944V22.3653C117.114 22.5502 117.047 22.6427 116.912 22.6427C116.792 22.6293 116.676 22.5931 116.57 22.536C116.032 22.3022 115.45 22.1858 114.864 22.1947C114.455 22.1734 114.049 22.2599 113.685 22.4453C113.548 22.525 113.437 22.641 113.362 22.7803C113.288 22.9197 113.254 23.077 113.264 23.2347C113.261 23.352 113.283 23.4685 113.328 23.5769C113.373 23.6853 113.44 23.7831 113.525 23.864C113.812 24.0939 114.145 24.2611 114.501 24.3547L115.76 24.7333C116.293 24.8719 116.771 25.1695 117.13 25.5867C117.412 25.9527 117.559 26.4048 117.546 26.8667C117.551 27.2235 117.47 27.5764 117.312 27.896C117.156 28.2013 116.936 28.4689 116.666 28.68C116.372 28.9071 116.037 29.0755 115.68 29.176C115.271 29.2875 114.849 29.3396 114.426 29.3307Z" fill="white"/>
<path fill-rule="evenodd" clip-rule="evenodd" d="M116.101 33.6987C113.184 35.8533 108.949 37 105.333 37C100.454 37.0321 95.74 35.2381 92.117 31.9707C91.845 31.7253 92.085 31.3893 92.4156 31.576C96.4348 33.8751 100.985 35.083 105.616 35.08C109.073 35.0614 112.494 34.36 115.68 33.016C116.17 32.808 116.586 33.3413 116.101 33.6987Z" fill="white"/>
<path fill-rule="evenodd" clip-rule="evenodd" d="M117.317 32.312C116.944 31.832 114.848 32.088 113.909 32.2C113.626 32.232 113.578 31.9867 113.834 31.8053C115.504 30.632 118.245 30.968 118.56 31.3627C118.874 31.7573 118.474 34.504 116.912 35.816C116.672 36.0187 116.442 35.912 116.549 35.6453C116.901 34.76 117.69 32.792 117.317 32.312Z" fill="white"/>
</g>
<g filter="url(#filter1_d_113_13527)">
<path d="M59.4832 60.7508C58.4618 59.0998 56.815 58.2923 54.5114 58.4177C51.6066 58.5816 48.7041 58.7575 45.8041 58.9503C46.5068 60.37 47.2215 61.7511 47.9459 63.0985C46.9631 69.0641 45.9828 75.032 45 81C47.1539 80.4528 49.3102 79.937 51.4713 79.4477C53.0119 79.0982 54.4027 78.4089 55.627 77.3941C56.8512 76.3794 57.8702 75.073 58.6791 73.4653C59.4881 71.8576 60.0386 70.0306 60.3404 67.9481C60.7992 64.7809 60.5022 62.4043 59.4832 60.746V60.7508ZM55.9916 68.2518C55.965 68.4301 55.9385 68.6085 55.9095 68.7845C55.3421 72.5325 53.9126 74.6102 51.6331 75.0585C51.1357 75.1549 50.6383 75.2514 50.1408 75.3502C50.7928 71.2623 51.4448 67.1744 52.0967 63.084C52.5917 63.0358 53.0892 62.9876 53.5842 62.9418C55.7526 62.749 56.5566 64.523 55.9892 68.2494L55.9916 68.2518Z" fill="white"/>
<path d="M65.0613 69.2253C66.8578 69.0084 68.6543 68.8035 70.4533 68.6155C70.6102 67.3187 70.7672 66.022 70.9241 64.7252C69.1493 64.8698 67.377 65.0265 65.6046 65.1928C65.7543 64.0793 65.904 62.9657 66.0537 61.8521C68.21 61.6979 70.3663 61.5581 72.5226 61.4303C72.6748 60.1432 72.8269 58.8585 72.979 57.5714C69.4946 57.6943 66.0103 57.8389 62.5307 58.0028C61.589 64.583 60.6473 71.1608 59.7031 77.741C63.4169 77.0347 67.1379 76.4153 70.8638 75.885C71.0159 74.5979 71.1656 73.3132 71.3177 72.0261C69.0648 72.2985 66.8143 72.5997 64.5663 72.9275C64.7329 71.6935 64.8971 70.4594 65.0637 69.2277L65.0613 69.2253Z" fill="white"/>
<path d="M84.2213 60.8617C84.3203 59.6517 84.4169 58.4441 84.5159 57.2342C81.0291 57.3137 77.5423 57.4125 74.0579 57.533C73.3601 63.5974 72.6646 69.6642 71.9668 75.7286C75.6951 75.2152 79.4281 74.7885 83.1636 74.4487C83.2627 73.2387 83.3592 72.0311 83.4582 70.8211C81.2005 70.9947 78.9428 71.1972 76.6899 71.4261C76.8082 70.2812 76.9241 69.1363 77.0424 67.989C78.8438 67.8372 80.6427 67.6998 82.4441 67.5769C82.5479 66.3621 82.6517 65.1448 82.7556 63.93C80.9784 64.024 79.2012 64.1301 77.4264 64.2458C77.5326 63.2118 77.6389 62.1777 77.7451 61.1437C79.9038 61.0352 82.0626 60.9412 84.2213 60.8593V60.8617Z" fill="white"/>
<path d="M115.928 57.0677C114.61 61.8932 113.195 66.6705 111.693 71.4309C110.853 69.8762 110.02 68.3288 109.206 66.7886C109.95 66.3378 110.517 65.7353 110.911 64.9808C111.302 64.224 111.483 63.3611 111.459 62.3921C111.415 60.7387 110.865 59.425 109.829 58.4561C108.791 57.4871 107.424 57.0003 105.705 57.0003C102.426 56.9978 99.144 57.0123 95.8649 57.0461C97.0384 58.1114 98.2288 59.172 99.4338 60.2325C99.3999 61.71 99.3661 63.1876 99.3323 64.6651C98.4824 64.6771 97.6324 64.6964 96.7849 64.7157C97.007 64.0866 97.1374 63.3948 97.1615 62.626C97.2171 60.8905 96.7486 59.5311 95.7755 58.5453C94.8024 57.5619 93.4671 57.0726 91.7478 57.0991C89.6978 57.1304 87.6477 57.1666 85.5977 57.21C85.1558 62.9224 84.7139 68.6373 84.2744 74.3498C85.7087 74.2268 87.1406 74.116 88.575 74.0171C88.6884 72.1901 88.8019 70.3631 88.9154 68.5361C89.6543 68.4975 90.3956 68.4613 91.1345 68.4276C92.9334 68.3456 94.3823 67.7937 95.464 66.7669C95.8383 66.4126 96.145 66.0125 96.3937 65.5738C97.0963 66.2921 97.799 67.0103 98.5138 67.7286C98.7625 67.7238 99.0136 67.719 99.2623 67.7141C99.2188 69.652 99.173 71.5899 99.1295 73.5278C100.542 73.4941 101.955 73.4724 103.367 73.4628C103.379 71.5466 103.391 69.6303 103.403 67.7141C104.068 67.7117 104.732 67.7093 105.396 67.7093C106.318 69.6255 107.265 71.5466 108.23 73.4772C109.464 73.4941 110.696 73.5278 111.93 73.5616C113.205 73.5977 114.477 73.6387 115.752 73.6942C115.984 72.6336 116.216 71.5731 116.44 70.5101C118.056 70.5776 119.671 70.6596 121.287 70.7536C121.644 71.8599 122.006 72.9686 122.371 74.0798C123.998 74.1979 125.623 74.3305 127.248 74.4823C124.897 68.5602 122.661 62.7947 120.545 57.1304C119.007 57.1039 117.469 57.0822 115.931 57.0629L115.928 57.0677ZM92.3129 64.3999C91.9193 64.8145 91.3808 65.0339 90.695 65.0604C90.1735 65.0797 89.6519 65.1014 89.1303 65.123C89.2245 63.5949 89.3211 62.0692 89.4153 60.5434C89.9272 60.529 90.4391 60.5145 90.951 60.5025C91.6247 60.4856 92.1342 60.676 92.4795 61.0689C92.8248 61.4618 92.9842 62.0137 92.9503 62.72C92.9165 63.4262 92.7041 63.9878 92.3129 64.3999ZM106.786 64.0577C106.424 64.4361 105.915 64.6241 105.258 64.6241C105.012 64.6241 104.765 64.6241 104.519 64.6241C104.154 64.6241 103.79 64.6241 103.425 64.6265C103.435 63.1707 103.445 61.7124 103.454 60.2566C104.039 60.2566 104.625 60.2566 105.212 60.2566C106.601 60.2566 107.306 60.9821 107.32 62.4235C107.327 63.1369 107.149 63.6817 106.789 64.0601L106.786 64.0577ZM117.109 67.2706C117.529 65.2243 117.937 63.1731 118.333 61.1123C118.966 63.1996 119.611 65.2942 120.268 67.4032C119.215 67.355 118.162 67.3092 117.109 67.2706Z" fill="white"/>
<path d="M134.109 71.5587C132.757 71.4165 131.692 70.9007 130.924 70.0113C130.156 69.1219 129.705 67.9047 129.56 66.3404C129.543 66.1548 129.526 65.9692 129.509 65.786C129.362 64.1904 129.598 63.0045 130.212 62.2187C130.825 61.4354 131.801 61.069 133.146 61.1365C134.022 61.1823 135.092 61.392 136.359 61.7801C136.212 60.5026 136.067 59.2251 135.92 57.9477C134.633 57.3957 133.331 57.1089 132.006 57.0703C129.598 57.0052 127.799 57.7645 126.573 59.2974C125.349 60.8352 124.822 63.0021 125.042 65.8366C125.264 68.7218 126.107 70.9538 127.604 72.5855C129.099 74.2173 131.19 75.1887 133.841 75.5141C135.505 75.7165 136.939 75.6466 138.134 75.2755C137.987 73.9956 137.84 72.7181 137.692 71.4382C136.338 71.6286 135.142 71.6672 134.109 71.5587Z" fill="white"/>
<path d="M142.975 72.5786C142.818 71.3662 142.664 70.1514 142.507 68.939C144.303 69.1439 146.1 69.3632 147.894 69.597C147.701 68.2231 147.508 66.8517 147.315 65.4778C145.542 65.2994 143.77 65.1307 141.997 64.974C141.857 63.8773 141.715 62.783 141.575 61.6888C143.731 61.8334 145.885 61.99 148.041 62.1588C147.843 60.7728 147.645 59.3869 147.447 58.001C143.965 57.8371 140.483 57.6924 136.999 57.5695C137.719 63.6749 138.438 69.7802 139.158 75.888C142.884 76.4207 146.605 77.0377 150.318 77.7439C150.12 76.358 149.922 74.972 149.722 73.5861C147.476 73.2246 145.228 72.8871 142.978 72.581L142.975 72.5786Z" fill="white"/>
<path d="M160.091 71.3608C160.741 70.8836 161.185 70.1725 161.427 69.2229C161.668 68.2732 161.682 67.1452 161.47 65.8532C161.11 63.6478 160.313 61.8473 159.096 60.5071C157.879 59.1646 156.421 58.468 154.709 58.3764C152.649 58.2631 150.589 58.1547 148.527 58.0558C149.491 64.6891 150.457 71.3247 151.42 77.9579C152.821 78.2302 154.221 78.5171 155.619 78.8135C155.255 76.4201 154.89 74.0266 154.525 71.6332C155.185 71.7392 155.844 71.8453 156.503 71.9538C157.795 74.5376 159.104 77.1793 160.429 79.8861C161.955 80.2429 163.479 80.6141 165 80.9997C163.339 77.6879 161.704 74.4774 160.094 71.3584L160.091 71.3608ZM157.162 67.4923C156.877 67.9333 156.406 68.1045 155.757 68.0177C155.151 67.9358 154.542 67.8562 153.936 67.7767C153.659 65.9569 153.381 64.1371 153.103 62.3173C153.688 62.3679 154.269 62.4185 154.851 62.4716C156.235 62.5921 157.073 63.5875 157.37 65.4507C157.515 66.3715 157.447 67.0536 157.162 67.4923Z" fill="white"/>
</g>
<path d="M76.0555 149V139.298H82.1595V140.922H78.1555V143.358H81.3475V144.982H78.1555V149H76.0555ZM83.5321 149V141.846H85.5761V149H83.5321ZM84.5541 140.74C84.1994 140.74 83.9148 140.642 83.7001 140.446C83.4854 140.25 83.3781 139.984 83.3781 139.648C83.3781 139.312 83.4854 139.046 83.7001 138.85C83.9148 138.654 84.1994 138.556 84.5541 138.556C84.9088 138.556 85.1934 138.654 85.4081 138.85C85.6228 139.046 85.7301 139.312 85.7301 139.648C85.7301 139.984 85.6228 140.25 85.4081 140.446C85.1934 140.642 84.9088 140.74 84.5541 140.74ZM87.5913 149V141.846H89.2713L89.5233 142.91C89.8967 142.499 90.2467 142.21 90.5733 142.042C90.9093 141.865 91.264 141.776 91.6373 141.776C91.8147 141.776 92.0013 141.79 92.1973 141.818V143.708C91.936 143.652 91.6467 143.624 91.3293 143.624C90.7227 143.624 90.158 143.731 89.6353 143.946V149H87.5913ZM96.3032 147.026C96.3032 146.839 96.2472 146.695 96.1352 146.592C96.0325 146.489 95.8178 146.377 95.4912 146.256L94.3992 145.822C93.8298 145.598 93.4192 145.323 93.1672 144.996C92.9152 144.669 92.7892 144.254 92.7892 143.75C92.7892 143.115 93.0412 142.607 93.5452 142.224C94.0585 141.832 94.7398 141.636 95.5892 141.636C96.3732 141.636 97.0965 141.79 97.7592 142.098V143.456C97.0498 143.241 96.3872 143.134 95.7712 143.134C95.3885 143.134 95.1085 143.181 94.9312 143.274C94.7538 143.367 94.6652 143.517 94.6652 143.722C94.6652 143.881 94.7165 144.011 94.8192 144.114C94.9312 144.207 95.1598 144.324 95.5052 144.464L96.5692 144.898C97.1478 145.131 97.5585 145.402 97.8012 145.71C98.0532 146.018 98.1792 146.419 98.1792 146.914C98.1792 147.605 97.9132 148.165 97.3812 148.594C96.8585 149.014 96.1678 149.224 95.3092 149.224C94.3478 149.224 93.4985 149.033 92.7612 148.65V147.292C93.6852 147.581 94.5298 147.726 95.2952 147.726C95.9672 147.726 96.3032 147.493 96.3032 147.026ZM103.756 148.818C103.252 149.014 102.687 149.112 102.062 149.112C101.268 149.112 100.68 148.925 100.298 148.552C99.9242 148.179 99.7375 147.6 99.7375 146.816V143.358H98.6595V142.098L99.7935 141.874L100.102 139.914H101.782V141.846H103.714V143.358H101.782V146.718C101.782 147.017 101.856 147.227 102.006 147.348C102.155 147.469 102.407 147.53 102.762 147.53C103.051 147.53 103.382 147.502 103.756 147.446V148.818ZM108.673 149V141.846H110.353L110.605 142.91C110.979 142.499 111.329 142.21 111.655 142.042C111.991 141.865 112.346 141.776 112.719 141.776C112.897 141.776 113.083 141.79 113.279 141.818V143.708C113.018 143.652 112.729 143.624 112.411 143.624C111.805 143.624 111.24 143.731 110.717 143.946V149H108.673ZM118.449 149L118.281 148.37C117.992 148.631 117.656 148.841 117.273 149C116.9 149.149 116.536 149.224 116.181 149.224C115.491 149.224 114.935 149.028 114.515 148.636C114.105 148.244 113.899 147.721 113.899 147.068C113.899 146.62 114.011 146.228 114.235 145.892C114.459 145.547 114.781 145.276 115.201 145.08C115.621 144.884 116.116 144.786 116.685 144.786C117.133 144.786 117.628 144.847 118.169 144.968V144.268C118.169 143.839 118.081 143.545 117.903 143.386C117.726 143.227 117.399 143.148 116.923 143.148C116.158 143.148 115.313 143.293 114.389 143.582V142.224C114.735 142.047 115.169 141.907 115.691 141.804C116.214 141.692 116.746 141.636 117.287 141.636C118.249 141.636 118.949 141.832 119.387 142.224C119.835 142.607 120.059 143.213 120.059 144.044V149H118.449ZM116.755 147.852C116.989 147.852 117.227 147.801 117.469 147.698C117.721 147.595 117.955 147.455 118.169 147.278V146.06C117.759 145.995 117.39 145.962 117.063 145.962C116.251 145.962 115.845 146.289 115.845 146.942C115.845 147.231 115.925 147.455 116.083 147.614C116.242 147.773 116.466 147.852 116.755 147.852ZM127.156 148.692C126.904 148.841 126.6 148.953 126.246 149.028C125.891 149.112 125.522 149.154 125.14 149.154C124.001 149.154 123.128 148.837 122.522 148.202C121.924 147.567 121.626 146.653 121.626 145.458C121.626 144.273 121.943 143.349 122.578 142.686C123.212 142.023 124.094 141.692 125.224 141.692C125.905 141.692 126.535 141.841 127.114 142.14V143.498C126.563 143.339 126.059 143.26 125.602 143.26C124.948 143.26 124.468 143.428 124.16 143.764C123.852 144.091 123.698 144.613 123.698 145.332V145.528C123.698 146.237 123.847 146.76 124.146 147.096C124.454 147.423 124.925 147.586 125.56 147.586C126.017 147.586 126.549 147.502 127.156 147.334V148.692ZM129.996 145.92C130.034 146.536 130.22 146.984 130.556 147.264C130.892 147.535 131.42 147.67 132.138 147.67C132.764 147.67 133.492 147.553 134.322 147.32V148.678C133.996 148.846 133.604 148.977 133.146 149.07C132.698 149.163 132.232 149.21 131.746 149.21C130.561 149.21 129.656 148.888 129.03 148.244C128.414 147.6 128.106 146.657 128.106 145.416C128.106 144.221 128.414 143.293 129.03 142.63C129.646 141.967 130.5 141.636 131.592 141.636C132.516 141.636 133.226 141.893 133.72 142.406C134.224 142.91 134.476 143.633 134.476 144.576C134.476 144.781 134.462 145.015 134.434 145.276C134.406 145.537 134.374 145.752 134.336 145.92H129.996ZM131.522 143.05C131.065 143.05 130.701 143.19 130.43 143.47C130.169 143.741 130.02 144.137 129.982 144.66H132.726V144.422C132.726 143.507 132.325 143.05 131.522 143.05Z" fill="white"/>
<path d="M93.9513 164V163.22C94.9113 162.247 95.6113 161.503 96.0513 160.99C96.4979 160.47 96.8046 160.053 96.9713 159.74C97.1379 159.427 97.2213 159.13 97.2213 158.85C97.2213 158.517 97.1179 158.257 96.9113 158.07C96.7113 157.877 96.4379 157.78 96.0913 157.78C95.4979 157.78 94.8479 158.03 94.1413 158.53V157.68C94.4679 157.42 94.7979 157.23 95.1313 157.11C95.4713 156.983 95.8413 156.92 96.2413 156.92C96.8479 156.92 97.3346 157.09 97.7013 157.43C98.0746 157.77 98.2613 158.22 98.2613 158.78C98.2613 159.153 98.1613 159.533 97.9613 159.92C97.7613 160.3 97.4346 160.743 96.9813 161.25C96.5346 161.757 95.9079 162.397 95.1013 163.17H98.5813V164H93.9513ZM102.071 163.31C102.597 163.31 102.984 163.09 103.231 162.65C103.477 162.203 103.601 161.497 103.601 160.53C103.601 159.577 103.477 158.877 103.231 158.43C102.984 157.983 102.597 157.76 102.071 157.76C101.544 157.76 101.157 157.983 100.911 158.43C100.664 158.877 100.541 159.577 100.541 160.53C100.541 161.49 100.664 162.193 100.911 162.64C101.157 163.087 101.544 163.31 102.071 163.31ZM102.071 164.15C101.251 164.15 100.621 163.84 100.181 163.22C99.7406 162.593 99.5206 161.697 99.5206 160.53C99.5206 159.37 99.7373 158.48 100.171 157.86C100.611 157.233 101.244 156.92 102.071 156.92C102.891 156.92 103.521 157.23 103.961 157.85C104.401 158.47 104.621 159.363 104.621 160.53C104.621 161.697 104.401 162.593 103.961 163.22C103.527 163.84 102.897 164.15 102.071 164.15ZM105.67 164V163.22C106.63 162.247 107.33 161.503 107.77 160.99C108.217 160.47 108.523 160.053 108.69 159.74C108.857 159.427 108.94 159.13 108.94 158.85C108.94 158.517 108.837 158.257 108.63 158.07C108.43 157.877 108.157 157.78 107.81 157.78C107.217 157.78 106.567 158.03 105.86 158.53V157.68C106.187 157.42 106.517 157.23 106.85 157.11C107.19 156.983 107.56 156.92 107.96 156.92C108.567 156.92 109.053 157.09 109.42 157.43C109.793 157.77 109.98 158.22 109.98 158.78C109.98 159.153 109.88 159.533 109.68 159.92C109.48 160.3 109.153 160.743 108.7 161.25C108.253 161.757 107.627 162.397 106.82 163.17H110.3V164H105.67ZM114.479 164V162.51H111.159V161.74L114.449 157.07H115.409V161.7H116.379V162.51H115.409V164H114.479ZM114.479 161.7V158.38L112.159 161.7H114.479Z" fill="white" fill-opacity="0.75"/>
<path fill-rule="evenodd" clip-rule="evenodd" d="M98.8962 98.9237H88.5191C84.3664 98.9237 81 102.29 81 106.443C81 110.595 84.3664 113.962 88.5191 113.962H91.0855C95.2382 113.962 98.6046 117.328 98.6046 121.481C98.6046 125.634 101.971 129 106.124 129H113.962C122.267 129 129 122.267 129 113.962C129 105.657 122.267 98.9237 113.962 98.9237H106.153V102.588H113.962C120.244 102.588 125.336 107.68 125.336 113.962C125.336 120.244 120.244 125.336 113.962 125.336H106.124C103.995 125.336 102.269 123.61 102.269 121.481C102.269 115.305 97.2618 110.298 91.0855 110.298H88.5191C86.39 110.298 84.6641 108.572 84.6641 106.443C84.6641 104.314 86.39 102.588 88.5191 102.588H98.8962V98.9237ZM103.71 102.588H101.339V98.9237H103.71V102.588Z" fill="white"/>
<path d="M109.47 99.9924V94.4962M109.47 94.4962V89.458C109.47 89.2051 109.675 89 109.928 89H116.714C116.967 89 117.172 89.2051 117.172 89.458V94.0382C117.172 94.2911 116.967 94.4962 116.714 94.4962H109.47Z" stroke="white" stroke-width="2.44275"/>
<path d="M88.4034 51.2C87.77 50.98 87.3134 50.7033 87.0334 50.37C86.7534 50.0367 86.6134 49.6 86.6134 49.06C86.6134 48.62 86.7334 48.2367 86.9734 47.91C87.2134 47.5833 87.54 47.3333 87.9534 47.16C88.3734 46.9867 88.8534 46.9 89.3934 46.9C90.0934 46.9 90.7567 47.02 91.3834 47.26V48.66C90.75 48.48 90.14 48.39 89.5534 48.39C88.8667 48.39 88.5234 48.57 88.5234 48.93C88.5234 49.0633 88.5834 49.1767 88.7034 49.27C88.8234 49.3633 89.0434 49.4633 89.3634 49.57L89.9634 49.77C90.65 49.9967 91.1367 50.27 91.4234 50.59C91.7167 50.9033 91.8634 51.3233 91.8634 51.85C91.8634 52.5833 91.6 53.1533 91.0734 53.56C90.5534 53.9667 89.82 54.17 88.8734 54.17C88.4667 54.17 88.0734 54.1333 87.6934 54.06C87.3134 53.9933 86.99 53.9 86.7234 53.78V52.36C87.05 52.4467 87.41 52.52 87.8034 52.58C88.2034 52.6333 88.5667 52.66 88.8934 52.66C89.24 52.66 89.4967 52.6167 89.6634 52.53C89.83 52.4367 89.9134 52.2933 89.9134 52.1C89.9134 51.9933 89.89 51.9067 89.8434 51.84C89.8034 51.7733 89.72 51.71 89.5934 51.65C89.4734 51.5833 89.27 51.5 88.9834 51.4L88.4034 51.2ZM96.1688 53.87C95.7754 54.0167 95.3254 54.09 94.8188 54.09C94.1854 54.0833 93.7188 53.9367 93.4188 53.65C93.1188 53.3567 92.9688 52.8967 92.9688 52.27V50.13H92.2588V49.07L93.0188 48.89L93.3188 47.51H94.8488V48.85H96.1488V50.13H94.8488V52.15C94.8488 52.35 94.8988 52.49 94.9988 52.57C95.0988 52.65 95.2688 52.69 95.5088 52.69C95.6954 52.69 95.9154 52.67 96.1688 52.63V53.87ZM100.4 54L100.24 53.49C99.6529 53.93 99.0629 54.15 98.4696 54.15C97.9896 54.15 97.6163 54.0133 97.3496 53.74C97.0829 53.46 96.9496 53.08 96.9496 52.6V48.85H98.8296V52.24C98.8296 52.44 98.8663 52.5867 98.9396 52.68C99.0196 52.7667 99.1463 52.81 99.3196 52.81C99.5596 52.81 99.8029 52.74 100.05 52.6V48.85H101.93V54H100.4ZM105.04 54.11C104.387 54.11 103.874 53.8733 103.5 53.4C103.134 52.9267 102.95 52.2767 102.95 51.45C102.95 50.8833 103.04 50.3933 103.22 49.98C103.407 49.5667 103.664 49.25 103.99 49.03C104.317 48.81 104.69 48.7 105.11 48.7C105.57 48.7 105.974 48.8267 106.32 49.08V46.6H108.2V54H106.62L106.47 53.54C106.29 53.72 106.074 53.86 105.82 53.96C105.574 54.06 105.314 54.11 105.04 54.11ZM105.69 52.79C105.87 52.79 106.08 52.74 106.32 52.64V50.14C106.114 50.0467 105.88 50 105.62 50C105.354 50 105.157 50.1133 105.03 50.34C104.91 50.5667 104.85 50.9233 104.85 51.41C104.85 51.89 104.914 52.24 105.04 52.46C105.174 52.68 105.39 52.79 105.69 52.79ZM110.93 51.9C110.963 52.2333 111.09 52.4767 111.31 52.63C111.537 52.7767 111.873 52.85 112.32 52.85C112.747 52.85 113.267 52.7633 113.88 52.59V53.74C113.627 53.8667 113.323 53.9667 112.97 54.04C112.617 54.1133 112.267 54.15 111.92 54.15C110.12 54.15 109.22 53.2433 109.22 51.43C109.22 50.5767 109.45 49.91 109.91 49.43C110.37 48.9433 111.01 48.7 111.83 48.7C112.523 48.7 113.06 48.8867 113.44 49.26C113.82 49.6267 114.01 50.1533 114.01 50.84C114.01 50.9933 113.997 51.1767 113.97 51.39C113.95 51.5967 113.927 51.7667 113.9 51.9H110.93ZM111.78 49.95C111.54 49.95 111.347 50.0267 111.2 50.18C111.053 50.3267 110.963 50.54 110.93 50.82H112.43V50.7C112.43 50.2 112.213 49.95 111.78 49.95ZM118.177 54V50.62C118.177 50.42 118.137 50.2733 118.057 50.18C117.984 50.0867 117.857 50.04 117.677 50.04C117.43 50.04 117.17 50.1233 116.897 50.29V54H115.017V48.85H116.547L116.707 49.37C117.02 49.1367 117.327 48.9667 117.627 48.86C117.927 48.7533 118.244 48.7 118.577 48.7C119.057 48.7 119.424 48.83 119.677 49.09C119.93 49.35 120.057 49.72 120.057 50.2V54H118.177ZM124.626 53.87C124.232 54.0167 123.782 54.09 123.276 54.09C122.642 54.0833 122.176 53.9367 121.876 53.65C121.576 53.3567 121.426 52.8967 121.426 52.27V50.13H120.716V49.07L121.476 48.89L121.776 47.51H123.306V48.85H124.606V50.13H123.306V52.15C123.306 52.35 123.356 52.49 123.456 52.57C123.556 52.65 123.726 52.69 123.966 52.69C124.152 52.69 124.372 52.67 124.626 52.63V53.87Z" fill="white"/>
</g>
<g filter="url(#filter2_ddd_113_13527)">
<path d="M106.734 199.783C106.057 200.117 105.476 200.393 105 200.615C104.524 200.393 103.943 200.117 103.266 199.783C101.096 198.716 97.9319 197.069 94.0222 194.778C86.2007 190.195 75.4081 183.044 63.6221 172.813C51.8425 162.587 44.1189 153.495 39.3691 146.073C34.5551 138.551 33 133.07 33 130V40.3567C33.093 40.2894 33.19 40.2195 33.2907 40.1469C34.5276 39.2561 36.3386 37.9771 38.6144 36.4394C43.1701 33.3612 49.569 29.2597 56.9426 25.1633C71.8828 16.8632 90.1032 9 105 9C119.897 9 138.117 16.8632 153.057 25.1633C160.431 29.2597 166.83 33.3612 171.386 36.4394C173.661 37.9771 175.472 39.2561 176.709 40.1469C176.81 40.2195 176.907 40.2894 177 40.3567V130C177 132.523 175.47 137.996 170.615 145.708C165.855 153.269 158.128 162.613 146.378 172.813C134.592 183.044 123.799 190.195 115.978 194.778C112.068 197.069 108.904 198.716 106.734 199.783Z" stroke="url(#paint1_linear_113_13527)" stroke-width="8" shape-rendering="crispEdges"/>
</g>
<path d="M105 205C105.192 205.462 105.192 205.461 105.193 205.461L105.194 205.461L105.197 205.46L105.209 205.455L105.254 205.436C105.272 205.428 105.293 205.419 105.319 205.408C105.35 205.394 105.387 205.378 105.43 205.36C105.584 205.293 105.813 205.192 106.112 205.057C106.711 204.786 107.591 204.377 108.721 203.821C110.981 202.709 114.241 201.011 118.253 198.661C126.275 193.96 137.301 186.651 149.328 176.211C161.359 165.767 169.393 156.095 174.423 148.105C179.441 140.133 181.5 133.786 181.5 130V38.3333V38.0848L181.302 37.9348L181 38.3333C181.302 37.9348 181.302 37.9346 181.301 37.9343L181.3 37.9331L181.293 37.9283L181.269 37.9098L181.173 37.8375C181.087 37.7738 180.961 37.6797 180.795 37.557C180.464 37.3117 179.974 36.9523 179.339 36.4953C178.07 35.5813 176.222 34.2763 173.905 32.7107C169.271 29.5798 162.759 25.405 155.243 21.2296C140.235 12.8921 121.138 4.5 105 4.5C88.8621 4.5 69.7646 12.8921 54.7572 21.2296C47.2414 25.405 40.7287 29.5798 36.0951 32.7107C33.778 34.2763 31.9301 35.5813 30.6609 36.4953C30.0263 36.9523 29.5363 37.3117 29.2046 37.557C29.0388 37.6797 28.9125 37.7738 28.8275 37.8375L28.7312 37.9098L28.7066 37.9283L28.7004 37.9331L28.6987 37.9343C28.6983 37.9346 28.6981 37.9348 29 38.3333L28.6981 37.9348L28.5 38.0848V38.3333V130C28.5 134.304 30.5556 140.65 35.5789 148.499C40.6101 156.36 48.6447 165.77 60.6722 176.211C72.699 186.651 83.7249 193.96 91.7472 198.661C95.7585 201.011 99.0193 202.709 101.279 203.821C102.409 204.377 103.289 204.786 103.888 205.057C104.187 205.192 104.416 205.293 104.57 205.36C104.648 205.394 104.707 205.419 104.746 205.436L104.791 205.455L104.803 205.46L104.806 205.461L104.807 205.461C104.808 205.461 104.808 205.462 105 205ZM105 205L105.192 205.462L105 205.542L104.808 205.462L105 205Z" stroke="url(#paint2_linear_113_13527)"/>
<path d="M105 195.364C104.933 195.334 104.861 195.301 104.783 195.266C104.25 195.025 103.459 194.658 102.438 194.156C100.395 193.153 97.4343 191.613 93.784 189.476C86.4825 185.203 76.4287 178.547 65.4563 169.033C54.4864 159.522 47.2217 151.002 42.7104 143.962C38.1749 136.883 36.5 131.422 36.5 128V44.4208C36.791 44.2067 37.1851 43.9189 37.6749 43.5666C38.8298 42.7358 40.5157 41.5466 42.6319 40.1183C46.8657 37.2609 52.8147 33.452 59.6752 29.6449C73.4685 21.9907 90.6764 14.5 105 14.5C119.324 14.5 136.531 21.9907 150.325 29.6449C157.185 33.452 163.134 37.2609 167.368 40.1183C169.484 41.5466 171.17 42.7358 172.325 43.5666C172.815 43.9189 173.209 44.2067 173.5 44.4208V128C173.5 130.933 171.834 136.391 167.284 143.612C162.768 150.776 155.503 159.531 144.544 169.033C133.571 178.547 123.518 185.203 116.216 189.476C112.566 191.613 109.605 193.153 107.562 194.156C106.541 194.658 105.75 195.025 105.217 195.266C105.139 195.301 105.067 195.334 105 195.364Z" stroke="url(#paint3_linear_113_13527)" stroke-width="3"/>
<g filter="url(#filter3_f_113_13527)">
<path d="M105 197C105 197 123.421 189.333 145.526 170.167C167.632 151 175 134.708 175 128C175 121.292 175 43.6667 175 43.6667" stroke="url(#paint4_linear_113_13527)" stroke-width="2"/>
</g>
<g filter="url(#filter4_f_113_13527)">
<path d="M105 13C75.5263 13 35 43.6667 35 43.6667C35 43.6667 35 120.333 35 128" stroke="url(#paint5_linear_113_13527)" stroke-width="2"/>
</g>
<defs>
<filter id="filter0_ii_113_13527" x="35" y="11" width="140" height="188" filterUnits="userSpaceOnUse" color-interpolation-filters="sRGB">
<feFlood flood-opacity="0" result="BackgroundImageFix"/>
<feBlend mode="normal" in="SourceGraphic" in2="BackgroundImageFix" result="shape"/>
<feColorMatrix in="SourceAlpha" type="matrix" values="0 0 0 0 0 0 0 0 0 0 0 0 0 0 0 0 0 0 127 0" result="hardAlpha"/>
<feOffset dy="2"/>
<feGaussianBlur stdDeviation="2"/>
<feComposite in2="hardAlpha" operator="arithmetic" k2="-1" k3="1"/>
<feColorMatrix type="matrix" values="0 0 0 0 0 0 0 0 0 0 0 0 0 0 0 0 0 0 0.75 0"/>
<feBlend mode="normal" in2="shape" result="effect1_innerShadow_113_13527"/>
<feColorMatrix in="SourceAlpha" type="matrix" values="0 0 0 0 0 0 0 0 0 0 0 0 0 0 0 0 0 0 127 0" result="hardAlpha"/>
<feOffset dy="-2"/>
<feGaussianBlur stdDeviation="1"/>
<feComposite in2="hardAlpha" operator="arithmetic" k2="-1" k3="1"/>
<feColorMatrix type="matrix" values="0 0 0 0 0 0 0 0 0 0 0 0 0 0 0 0 0 0 1 0"/>
<feBlend mode="normal" in2="effect1_innerShadow_113_13527" result="effect2_innerShadow_113_13527"/>
</filter>
<filter id="filter1_d_113_13527" x="45" y="57" width="122" height="26" filterUnits="userSpaceOnUse" color-interpolation-filters="sRGB">
<feFlood flood-opacity="0" result="BackgroundImageFix"/>
<feColorMatrix in="SourceAlpha" type="matrix" values="0 0 0 0 0 0 0 0 0 0 0 0 0 0 0 0 0 0 127 0" result="hardAlpha"/>
<feOffset dx="1" dy="1"/>
<feGaussianBlur stdDeviation="0.5"/>
<feComposite in2="hardAlpha" operator="out"/>
<feColorMatrix type="matrix" values="0 0 0 0 0 0 0 0 0 0 0 0 0 0 0 0 0 0 0.75 0"/>
<feBlend mode="normal" in2="BackgroundImageFix" result="effect1_dropShadow_113_13527"/>
<feBlend mode="normal" in="SourceGraphic" in2="effect1_dropShadow_113_13527" result="shape"/>
</filter>
<filter id="filter2_ddd_113_13527" x="21" y="1" width="168" height="216" filterUnits="userSpaceOnUse" color-interpolation-filters="sRGB">
<feFlood flood-opacity="0" result="BackgroundImageFix"/>
<feColorMatrix in="SourceAlpha" type="matrix" values="0 0 0 0 0 0 0 0 0 0 0 0 0 0 0 0 0 0 127 0" result="hardAlpha"/>
<feOffset dy="1"/>
<feGaussianBlur stdDeviation="0.5"/>
<feComposite in2="hardAlpha" operator="out"/>
<feColorMatrix type="matrix" values="0 0 0 0 0.137255 0 0 0 0 0.184314 0 0 0 0 0.243137 0 0 0 0.5 0"/>
<feBlend mode="normal" in2="BackgroundImageFix" result="effect1_dropShadow_113_13527"/>
<feColorMatrix in="SourceAlpha" type="matrix" values="0 0 0 0 0 0 0 0 0 0 0 0 0 0 0 0 0 0 127 0" result="hardAlpha"/>
<feOffset dy="2"/>
<feGaussianBlur stdDeviation="2"/>
<feComposite in2="hardAlpha" operator="out"/>
<feColorMatrix type="matrix" values="0 0 0 0 0.137255 0 0 0 0 0.184314 0 0 0 0 0.243137 0 0 0 0.35 0"/>
<feBlend mode="normal" in2="effect1_dropShadow_113_13527" result="effect2_dropShadow_113_13527"/>
<feColorMatrix in="SourceAlpha" type="matrix" values="0 0 0 0 0 0 0 0 0 0 0 0 0 0 0 0 0 0 127 0" result="hardAlpha"/>
<feOffset dy="4"/>
<feGaussianBlur stdDeviation="4"/>
<feComposite in2="hardAlpha" operator="out"/>
<feColorMatrix type="matrix" values="0 0 0 0 0.137255 0 0 0 0 0.184314 0 0 0 0 0.243137 0 0 0 0.16 0"/>
<feBlend mode="normal" in2="effect2_dropShadow_113_13527" result="effect3_dropShadow_113_13527"/>
<feBlend mode="normal" in="SourceGraphic" in2="effect3_dropShadow_113_13527" result="shape"/>
</filter>
<filter id="filter3_f_113_13527" x="98.6152" y="37.6667" width="83.3848" height="166.256" filterUnits="userSpaceOnUse" color-interpolation-filters="sRGB">
<feFlood flood-opacity="0" result="BackgroundImageFix"/>
<feBlend mode="normal" in="SourceGraphic" in2="BackgroundImageFix" result="shape"/>
<feGaussianBlur stdDeviation="3" result="effect1_foregroundBlur_113_13527"/>
</filter>
<filter id="filter4_f_113_13527" x="28" y="6" width="83" height="128" filterUnits="userSpaceOnUse" color-interpolation-filters="sRGB">
<feFlood flood-opacity="0" result="BackgroundImageFix"/>
<feBlend mode="normal" in="SourceGraphic" in2="BackgroundImageFix" result="shape"/>
<feGaussianBlur stdDeviation="3" result="effect1_foregroundBlur_113_13527"/>
</filter>
<radialGradient id="paint0_radial_113_13527" cx="0" cy="0" r="1" gradientUnits="userSpaceOnUse" gradientTransform="translate(105 13) rotate(90) scale(120.5 145.072)">
<stop stop-color="#5C4EA0"/>
<stop offset="1" stop-color="#1B243C"/>
</radialGradient>
<linearGradient id="paint1_linear_113_13527" x1="171.764" y1="192.867" x2="12.6325" y2="71.9266" gradientUnits="userSpaceOnUse">
<stop stop-color="#3C3D3D"/>
<stop offset="0.14" stop-color="#A8B7BD"/>
<stop offset="0.27" stop-color="#D5DBE2"/>
<stop offset="0.33" stop-color="#D6DDE3"/>
<stop offset="0.46" stop-color="#BCC8D1"/>
<stop offset="0.53" stop-color="#B9C5D0"/>
<stop offset="0.61" stop-color="#CBD5E1"/>
<stop offset="0.63" stop-color="#CFD9E6"/>
<stop offset="0.72" stop-color="#E0E6EE"/>
<stop offset="0.8" stop-color="#EDF1F5"/>
<stop offset="0.84" stop-color="#D7DFE5"/>
<stop offset="0.91" stop-color="#A8B7BD"/>
<stop offset="1" stop-color="#71898E"/>
</linearGradient>
<linearGradient id="paint2_linear_113_13527" x1="105" y1="5" x2="105" y2="205" gradientUnits="userSpaceOnUse">
<stop stop-color="#232F3E" stop-opacity="0.08"/>
<stop offset="1" stop-color="#232F3E" stop-opacity="0"/>
</linearGradient>
<linearGradient id="paint3_linear_113_13527" x1="105" y1="197" x2="105" y2="13" gradientUnits="userSpaceOnUse">
<stop stop-color="#71898E"/>
<stop offset="0.14" stop-color="#A8B7BD"/>
<stop offset="0.27" stop-color="#D5DBE2"/>
<stop offset="0.33" stop-color="#D6DDE3"/>
<stop offset="0.46" stop-color="#BCC8D1"/>
<stop offset="0.53" stop-color="#B9C5D0"/>
<stop offset="0.61" stop-color="#CBD5E1"/>
<stop offset="0.63" stop-color="#CFD9E6"/>
<stop offset="0.72" stop-color="#E0E6EE"/>
<stop offset="0.8" stop-color="#EDF1F5"/>
<stop offset="0.84" stop-color="#D7DFE5"/>
<stop offset="0.91" stop-color="#A8B7BD"/>
<stop offset="1" stop-color="#71898E"/>
</linearGradient>
<linearGradient id="paint4_linear_113_13527" x1="175" y1="44" x2="105" y2="197" gradientUnits="userSpaceOnUse">
<stop stop-color="white"/>
<stop offset="1" stop-color="white" stop-opacity="0"/>
</linearGradient>
<linearGradient id="paint5_linear_113_13527" x1="105" y1="13" x2="35" y2="128" gradientUnits="userSpaceOnUse">
<stop stop-color="white"/>
<stop offset="1" stop-color="white" stop-opacity="0"/>
</linearGradient>
<clipPath id="clip0_113_13527">
<rect width="120" height="184" fill="white" transform="translate(45 13)"/>
</clipPath>
<clipPath id="clip1_113_13527">
<rect width="26.6667" height="16" fill="white" transform="translate(92 21)"/>
</clipPath>
</defs>
</svg>
